<?xml version="1.0" encoding="utf-8"?>
<!-- Generator: Adobe Illustrator 27.5.0, SVG Export Plug-In . SVG Version: 6.00 Build 0)  -->
<svg version="1.1" xmlns="http://www.w3.org/2000/svg" xmlns:xlink="http://www.w3.org/1999/xlink" x="0px" y="0px"
	 viewBox="0 0 3710 3710" style="enable-background:new 0 0 3710 3710;" xml:space="preserve">
<g id="Background">
	<g>
		<g>
			<rect style="fill:#FFFFFF;" width="3710" height="3710"/>
		</g>
	</g>
</g>
<g id="Illustration">
	<g>
		<linearGradient id="SVGID_1_" gradientUnits="userSpaceOnUse" x1="3473.7954" y1="3648.512" x2="1534.321" y2="1583.9105">
			<stop  offset="0" style="stop-color:#DAE3FE"/>
			<stop  offset="1" style="stop-color:#E9EFFD"/>
		</linearGradient>
		<path style="fill:url(#SVGID_1_);" d="M2891.47,2820.202c-71.597,73.8-135.66,117.183-184.709,149.933
			c-478.363,319.407-1025.185,227.347-1194.249,195.88c-272.763-50.767-503.013-86.581-700.839-265.309
			c-449.52-406.124-427.656-1253.328-84.168-1778.134c40.727-62.227,383.696-570.612,931.701-642.248
			c13.403-1.752,23.404-2.75,32.163-3.677c84.775-8.976,610.11-56.348,1038.468,302.53c61.318,51.372,159.995,144.033,251.5,285.357
			C3315.925,1581.277,3316.985,2381.598,2891.47,2820.202z"/>
		<g>
			<g>
				<g>
					<path style="fill:#91B3FA;" d="M1976.447,1344.685c-1.121,0-2.217-0.569-2.844-1.596c-2.295-3.761-4.577-7.658-6.784-11.585
						c-0.9-1.603-0.332-3.634,1.271-4.535c1.606-0.9,3.634-0.331,4.535,1.271c2.168,3.858,4.411,7.691,6.66,11.383
						c0.959,1.57,0.462,3.618-1.108,4.574C1977.637,1344.529,1977.039,1344.685,1976.447,1344.685z"/>
					<path style="fill:#91B3FA;" d="M1950.592,1293.831c-1.303,0-2.542-0.774-3.075-2.054c-3.449-8.308-6.644-16.88-9.505-25.471
						c-0.579-1.742,0.364-3.628,2.11-4.209c1.742-0.572,3.631,0.364,4.209,2.11c2.805,8.438,5.948,16.857,9.335,25.022
						c0.705,1.697-0.101,3.644-1.801,4.349C1951.45,1293.75,1951.018,1293.831,1950.592,1293.831z M1929.805,1226.308
						c-1.544,0-2.929-1.079-3.254-2.649c-0.309-1.479-0.608-2.964-0.897-4.447c-1.443-7.405-2.685-14.926-3.683-22.354
						c-0.244-1.82,1.034-3.494,2.857-3.741c1.82-0.224,3.498,1.031,3.741,2.857c0.982,7.297,2.197,14.686,3.618,21.964
						c0.283,1.456,0.575,2.909,0.878,4.362c0.377,1.801-0.777,3.563-2.578,3.936
						C1930.257,1226.285,1930.03,1226.308,1929.805,1226.308z M1921.985,1156.094c-1.814,0-3.299-1.456-3.328-3.277
						c-0.032-2.057-0.049-4.112-0.052-6.166c0-7.008,0.198-14.078,0.592-21.011c0.101-1.84,1.723-3.231,3.51-3.134
						c1.833,0.104,3.238,1.674,3.134,3.51c-0.384,6.81-0.579,13.75-0.579,20.628c0.003,2.015,0.02,4.044,0.052,6.069
						c0.029,1.837-1.437,3.351-3.276,3.381H1921.985z M1927.559,1085.652c-0.192,0-0.384-0.016-0.582-0.052
						c-1.811-0.319-3.02-2.045-2.698-3.855c1.567-8.91,3.481-17.858,5.688-26.596c0.449-1.785,2.266-2.857,4.044-2.412
						c1.781,0.452,2.86,2.259,2.412,4.044c-2.168,8.578-4.047,17.368-5.591,26.121
						C1930.55,1084.514,1929.146,1085.652,1927.559,1085.652z M1946.383,1017.541c-0.397,0-0.797-0.068-1.187-0.218
						c-1.719-0.657-2.578-2.581-1.924-4.297c3.221-8.442,6.79-16.864,10.61-25.035c0.78-1.668,2.763-2.383,4.424-1.609
						c1.667,0.78,2.386,2.76,1.609,4.424c-3.751,8.029-7.258,16.305-10.421,24.593
						C1948.987,1016.725,1947.722,1017.541,1946.383,1017.541z M1977.692,954.211c-0.598,0-1.203-0.159-1.745-0.497
						c-1.563-0.965-2.048-3.016-1.082-4.58c4.752-7.688,9.836-15.29,15.112-22.598c1.076-1.499,3.156-1.83,4.645-0.751
						c1.492,1.076,1.827,3.156,0.751,4.645c-5.181,7.18-10.177,14.65-14.845,22.201
						C1979.896,953.652,1978.807,954.211,1977.692,954.211z M2020.313,897.886c-0.806,0-1.609-0.289-2.249-0.874
						c-1.355-1.242-1.447-3.348-0.205-4.703c6.088-6.641,12.508-13.155,19.074-19.357c1.333-1.265,3.442-1.206,4.703,0.133
						c1.264,1.336,1.203,3.442-0.133,4.703c-6.449,6.095-12.755,12.495-18.736,19.019
						C2022.11,897.522,2021.213,897.886,2020.313,897.886z M2072.73,850.575c-1.017,0-2.022-0.465-2.675-1.342
						c-1.095-1.476-0.79-3.559,0.686-4.658c7.255-5.393,14.783-10.577,22.373-15.407c1.557-0.985,3.611-0.527,4.596,1.021
						c0.988,1.55,0.53,3.608-1.021,4.596c-7.457,4.742-14.852,9.836-21.977,15.134C2074.115,850.36,2073.42,850.575,2072.73,850.575
						z M2133.154,814.023c-1.239,0-2.428-0.696-3.003-1.885c-0.796-1.658-0.101-3.644,1.557-4.443
						c8.11-3.901,16.487-7.564,24.902-10.889c1.703-0.679,3.64,0.163,4.317,1.872c0.676,1.71-0.163,3.644-1.872,4.317
						c-8.266,3.267-16.496,6.868-24.46,10.701C2134.129,813.919,2133.639,814.023,2133.154,814.023z M2199.409,789.572
						c-1.472,0-2.818-0.985-3.215-2.477c-0.471-1.778,0.588-3.598,2.366-4.07c8.078-2.139,16.347-4.037,24.587-5.646l1.941-0.371
						c1.84-0.348,3.543,0.865,3.875,2.672c0.332,1.807-0.865,3.543-2.672,3.875l-1.869,0.358c-8.094,1.58-16.223,3.446-24.158,5.549
						C2199.979,789.536,2199.692,789.572,2199.409,789.572z M2366.356,783.78c-0.211,0-0.423-0.02-0.637-0.062
						c-8.718-1.694-17.595-3.082-26.384-4.131c-1.827-0.218-3.13-1.876-2.912-3.699c0.218-1.827,1.869-3.13,3.699-2.913
						c8.952,1.069,17.988,2.487,26.865,4.209c1.804,0.351,2.984,2.097,2.633,3.901
						C2369.311,782.675,2367.919,783.78,2366.356,783.78z M2269.094,777.939c-1.729,0-3.192-1.339-3.315-3.091
						c-0.133-1.833,1.248-3.426,3.082-3.556c8.887-0.637,17.878-0.959,26.722-0.959c2.009,0.013,3.621,1.45,3.621,3.328
						c-0.003,1.888-1.424,3.299-3.309,3.328c-9.001,0-17.829,0.315-26.56,0.939C2269.253,777.935,2269.172,777.939,2269.094,777.939
						z"/>
					<path style="fill:#91B3FA;" d="M2421.553,798.989c-0.374,0-0.754-0.062-1.128-0.198c-4.131-1.485-8.334-2.916-12.485-4.248
						c-1.749-0.562-2.714-2.435-2.152-4.187c0.559-1.746,2.435-2.708,4.187-2.152c4.226,1.355,8.5,2.812,12.706,4.326
						c1.729,0.621,2.626,2.529,2.002,4.258C2424.196,798.144,2422.918,798.989,2421.553,798.989z"/>
				</g>
				<g>
					<path style="fill:#91B3FA;" d="M2635.187,995.716c-1.268,0-2.477-0.725-3.033-1.95c-1.85-4.066-3.754-8.074-5.669-11.91
						c-0.822-1.645-0.153-3.644,1.492-4.463c1.642-0.816,3.647-0.153,4.463,1.492c1.95,3.907,3.894,7.987,5.773,12.124
						c0.761,1.674,0.02,3.647-1.651,4.408C2636.113,995.622,2635.645,995.716,2635.187,995.716z"/>
					<path style="fill:#91B3FA;" d="M2295.355,1523.756c-6.722-0.072-13.386-0.166-19.991-0.51c-1.836-0.098-3.244-1.664-3.15-3.501
						c0.097-1.833,1.609-3.316,3.501-3.15c6.485,0.345,13.031,0.572,19.636,0.504c2.213,0,4.424-0.023,6.634-0.065
						c0.023,0,0.045,0,0.045,0c1.83,0,3.312,1.45,3.348,3.263c0.036,1.84-1.427,3.358-3.263,3.394
						C2299.86,1523.733,2297.608,1523.756,2295.355,1523.756z M2344.994,1520.372c-1.642,0-3.072-1.212-3.296-2.886
						c-0.244-1.82,1.034-3.494,2.857-3.741c7.158-0.962,14.445-2.165,21.658-3.572c1.417-0.276,2.834-0.559,4.248-0.855
						c1.781-0.367,3.56,0.783,3.937,2.584c0.371,1.801-0.783,3.563-2.584,3.936c-1.44,0.296-2.883,0.585-4.327,0.868
						c-7.343,1.433-14.76,2.656-22.048,3.637C2345.289,1520.363,2345.14,1520.372,2344.994,1520.372z M2232.727,1518.503
						c-0.185,0-0.374-0.016-0.562-0.049c-8.75-1.489-17.566-3.315-26.199-5.428c-1.784-0.439-2.877-2.24-2.441-4.027
						c0.439-1.785,2.24-2.877,4.027-2.441c8.477,2.077,17.134,3.871,25.731,5.337c1.811,0.305,3.029,2.025,2.721,3.839
						C2235.728,1517.356,2234.32,1518.503,2232.727,1518.503z M2412.731,1504.783c-1.398,0-2.698-0.884-3.159-2.285
						c-0.579-1.745,0.371-3.627,2.116-4.203c8.312-2.747,16.601-5.812,24.639-9.114c1.694-0.689,3.644,0.11,4.343,1.814
						c0.699,1.7-0.114,3.644-1.814,4.343c-8.182,3.364-16.62,6.485-25.081,9.277
						C2413.427,1504.731,2413.076,1504.783,2412.731,1504.783z M2476.409,1476.939c-1.17,0-2.305-0.618-2.913-1.713
						c-0.894-1.609-0.312-3.634,1.294-4.525c7.642-4.239,15.209-8.796,22.494-13.545c1.534-0.998,3.605-0.566,4.606,0.972
						c1.004,1.541,0.569,3.602-0.972,4.606c-7.418,4.833-15.121,9.472-22.896,13.785
						C2477.507,1476.806,2476.955,1476.939,2476.409,1476.939z M2533.738,1437.722c-0.956,0-1.905-0.41-2.561-1.2
						c-1.177-1.414-0.985-3.514,0.429-4.687c6.706-5.575,13.298-11.465,19.591-17.501c1.33-1.268,3.433-1.225,4.707,0.098
						c1.271,1.326,1.229,3.436-0.098,4.707c-6.407,6.147-13.119,12.141-19.942,17.813
						C2535.24,1437.468,2534.486,1437.722,2533.738,1437.722z M2582.808,1388.522c-0.744,0-1.499-0.25-2.119-0.764
						c-1.414-1.173-1.615-3.27-0.442-4.687c5.555-6.716,10.948-13.72,16.025-20.823c1.07-1.492,3.143-1.84,4.645-0.77
						c1.495,1.069,1.84,3.15,0.771,4.645c-5.168,7.226-10.655,14.357-16.311,21.193
						C2584.719,1388.109,2583.767,1388.522,2582.808,1388.522z M2621.97,1331.095c-0.546,0-1.099-0.133-1.609-0.416
						c-1.609-0.891-2.191-2.919-1.3-4.525c4.232-7.635,8.24-15.518,11.916-23.427c0.777-1.664,2.75-2.392,4.424-1.615
						c1.668,0.777,2.389,2.756,1.616,4.424c-3.745,8.048-7.824,16.07-12.131,23.842
						C2624.278,1330.477,2623.14,1331.095,2621.97,1331.095z M2649.872,1267.414c-0.344,0-0.699-0.055-1.047-0.169
						c-1.746-0.575-2.691-2.461-2.113-4.206c2.75-8.312,5.23-16.802,7.369-25.234c0.452-1.788,2.259-2.857,4.047-2.409
						c1.781,0.455,2.86,2.266,2.409,4.047c-2.181,8.585-4.707,17.228-7.506,25.689
						C2652.57,1266.53,2651.27,1267.414,2649.872,1267.414z M2665.468,1199.644c-0.146,0-0.292-0.01-0.442-0.029
						c-1.823-0.24-3.104-1.915-2.86-3.738c1.151-8.65,2.002-17.449,2.532-26.15c0.11-1.837,1.729-3.231,3.523-3.12
						c1.837,0.11,3.231,1.69,3.121,3.524c-0.54,8.861-1.407,17.819-2.578,26.625
						C2668.543,1198.428,2667.113,1199.644,2665.468,1199.644z M2668.124,1130.19c-1.752,0-3.221-1.372-3.319-3.143
						c-0.488-8.718-1.287-17.524-2.383-26.173c-0.231-1.823,1.06-3.491,2.883-3.722c1.833-0.215,3.491,1.063,3.722,2.883
						c1.115,8.806,1.931,17.767,2.422,26.641c0.104,1.836-1.3,3.406-3.137,3.507
						C2668.251,1130.187,2668.186,1130.19,2668.124,1130.19z M2657.885,1061.422c-1.499,0-2.857-1.017-3.231-2.539
						c-2.083-8.513-4.482-17.026-7.135-25.292c-0.562-1.752,0.403-3.624,2.152-4.187c1.758-0.556,3.624,0.406,4.187,2.152
						c2.698,8.419,5.142,17.078,7.265,25.747c0.436,1.785-0.656,3.585-2.444,4.024
						C2658.415,1061.393,2658.148,1061.422,2657.885,1061.422z"/>
					<path style="fill:#91B3FA;" d="M2165.328,1500.382c-0.387,0-0.78-0.068-1.164-0.211c-4.317-1.612-8.52-3.264-12.495-4.912
						c-1.697-0.702-2.503-2.649-1.801-4.349c0.705-1.7,2.662-2.5,4.349-1.801c3.904,1.619,8.035,3.241,12.274,4.827
						c1.723,0.644,2.597,2.561,1.953,4.281C2167.945,1499.556,2166.677,1500.382,2165.328,1500.382z"/>
				</g>
				<g>
					<path style="fill:#91B3FA;" d="M2153.409,1396.259c1.551,1.117,3.64,1.128,5.202,0.026l44.564-31.431
						c23.512,9.786,48.754,15.894,74.9,17.705l25.791,48.008c0.905,1.685,2.778,2.609,4.665,2.303l64.567-10.48
						c1.887-0.307,3.372-1.777,3.698-3.659l9.281-53.702c24.23-9.989,46.244-23.767,65.453-40.488l52.219,15.721
						c1.83,0.55,3.808-0.121,4.926-1.671l38.245-53.067c1.117-1.552,1.128-3.64,0.026-5.202l-31.43-44.564
						c9.786-23.512,15.893-48.755,17.705-74.9l48.01-25.792c1.684-0.905,2.608-2.777,2.302-4.664l-10.48-64.568
						c-0.306-1.887-1.776-3.372-3.66-3.697l-53.703-9.281c-9.989-24.231-23.765-46.245-40.487-65.453l15.721-52.219
						c0.551-1.829-0.12-3.808-1.671-4.926l-53.067-38.245c-1.551-1.119-3.64-1.128-5.202-0.027l-44.564,31.431
						c-23.512-9.787-48.754-15.894-74.9-17.705l-25.791-48.01c-0.905-1.684-2.778-2.608-4.665-2.303l-64.568,10.481
						c-1.887,0.306-3.371,1.776-3.696,3.659l-9.282,53.703c-24.23,9.988-46.245,23.766-65.454,40.487l-52.218-15.721
						c-1.83-0.552-3.809,0.12-4.927,1.671l-38.245,53.067c-1.117,1.55-1.128,3.639-0.027,5.202l31.431,44.564
						c-9.786,23.512-15.893,48.754-17.704,74.899l-48.01,25.792c-1.683,0.903-2.608,2.777-2.301,4.665l10.48,64.567
						c0.307,1.887,1.776,3.372,3.659,3.698l53.703,9.282c9.989,24.229,23.767,46.244,40.487,65.453l-15.72,52.219
						c-0.552,1.83,0.119,3.808,1.67,4.927L2153.409,1396.259z"/>
					<g>
						<path style="fill:#BDD0FB;" d="M2294.812,1207.244c-7.856,0-15.723-1.485-23.248-4.466
							c-15.664-6.208-27.974-18.141-34.66-33.604c-13.805-31.923,0.936-69.125,32.856-82.93c15.459-6.686,32.603-6.956,48.27-0.751
							c15.664,6.208,27.974,18.141,34.66,33.604c13.805,31.92-0.933,69.122-32.853,82.934l0,0
							C2311.802,1205.505,2303.312,1207.244,2294.812,1207.244z M2317.855,1197.447h0.032H2317.855z M2294.789,1091.018
							c-7.154,0-14.299,1.466-21.063,4.391c-26.869,11.617-39.276,42.93-27.655,69.798c5.626,13.018,15.989,23.062,29.173,28.286
							c13.181,5.217,27.61,4.999,40.628-0.631l0,0c26.869-11.624,39.273-42.936,27.652-69.802
							c-5.627-13.018-15.989-23.062-29.173-28.283C2308.019,1092.27,2301.401,1091.018,2294.789,1091.018z"/>
					</g>
					<path style="fill:#BDD0FB;" d="M2295.28,1305.796c-1.047,0-2.09-0.01-3.137-0.029c-0.715-0.013-1.434-0.033-2.149-0.055
						c-0.627-0.023-1.251-0.045-1.875-0.071c-0.312-0.016-0.624-0.029-0.933-0.046c-0.065-0.003-0.13-0.006-0.195-0.01l0.513-9.973
						c10.792,0.556,21.727-0.049,32.499-1.797c1.85-0.299,3.683-0.634,5.503-0.998c73.186-14.608,124.485-80.06,122.831-153.236
						c-0.159-6.985-0.8-14.039-1.95-21.128c-13.506-83.19-92.165-139.853-175.362-126.38
						c-74.924,12.163-128.356,77.18-128.369,150.756c0,8.12,0.647,16.34,1.99,24.606c4.437,27.347,16.178,52.935,33.955,73.995
						l-7.632,6.443c-18.941-22.445-31.452-49.704-36.178-78.838c-1.43-8.806-2.123-17.566-2.119-26.212
						c0.013-78.383,56.936-147.648,136.756-160.605c88.625-14.383,172.43,46.011,186.817,134.636
						c1.427,8.783,2.116,17.52,2.119,26.15c0.013,78.406-56.92,147.707-136.759,160.667l0,0
						C2312.885,1305.084,2304.063,1305.796,2295.28,1305.796z"/>
				</g>
			</g>
			<g>
				<g>
					<path style="fill:#91B3FA;" d="M2564.654,965.939c-1.121,0-2.217-0.566-2.844-1.596c-2.324-3.81-4.567-7.766-6.664-11.76
						c-0.858-1.625-0.231-3.637,1.398-4.492c1.632-0.858,3.641-0.231,4.492,1.398c2.035,3.868,4.206,7.701,6.455,11.39
						c0.959,1.57,0.462,3.618-1.108,4.573C2565.843,965.782,2565.245,965.939,2564.654,965.939z"/>
					<path style="fill:#91B3FA;" d="M2541.253,911.476c-1.466,0-2.809-0.975-3.208-2.457c-1.362-5.019-2.555-10.145-3.546-15.235
						c-0.832-4.265-1.551-8.643-2.139-13.018c-0.244-1.82,1.034-3.497,2.857-3.741c1.82-0.25,3.498,1.037,3.741,2.857
						c0.569,4.242,1.268,8.49,2.074,12.628c0.962,4.934,2.119,9.904,3.436,14.767c0.481,1.775-0.566,3.602-2.341,4.083
						C2541.835,911.44,2541.542,911.476,2541.253,911.476z M2534.603,837.602c-0.097,0-0.192-0.003-0.292-0.013
						c-1.83-0.159-3.186-1.772-3.026-3.605c0.829-9.55,2.324-19.139,4.44-28.497c0.406-1.791,2.188-2.916,3.982-2.513
						c1.794,0.406,2.919,2.188,2.513,3.982c-2.051,9.066-3.501,18.352-4.304,27.607
						C2537.765,836.295,2536.312,837.602,2534.603,837.602z M2553.969,765.999c-0.474,0-0.959-0.101-1.417-0.318
						c-1.664-0.783-2.373-2.77-1.59-4.43c4.099-8.679,8.815-17.153,14.023-25.185c1.001-1.541,3.065-1.983,4.603-0.982
						c1.544,0.998,1.983,3.059,0.982,4.603c-5.045,7.782-9.615,15.992-13.587,24.405
						C2556.414,765.294,2555.217,765.999,2553.969,765.999z M2596.856,705.491c-0.858,0-1.719-0.332-2.37-0.991
						c-1.291-1.307-1.278-3.416,0.032-4.707c6.829-6.738,14.172-13.067,21.824-18.814c1.469-1.099,3.559-0.806,4.661,0.663
						c1.102,1.469,0.806,3.556-0.663,4.661c-7.414,5.568-14.53,11.702-21.148,18.229
						C2598.547,705.172,2597.702,705.491,2596.856,705.491z M2657.989,663.534c-1.271,0-2.483-0.728-3.036-1.96
						c-0.757-1.674-0.013-3.647,1.664-4.401c8.715-3.933,17.803-7.317,27.012-10.057c1.762-0.523,3.618,0.481,4.138,2.24
						c0.527,1.762-0.478,3.615-2.24,4.138c-8.923,2.659-17.728,5.939-26.173,9.745
						C2658.909,663.439,2658.444,663.534,2657.989,663.534z M2729.877,645.331c-1.729,0-3.189-1.336-3.315-3.085
						c-0.136-1.833,1.242-3.429,3.075-3.563c9.504-0.699,19.22-0.764,28.825-0.166c1.837,0.114,3.231,1.693,3.117,3.527
						s-1.7,3.205-3.527,3.117c-9.316-0.575-18.729-0.507-27.928,0.159C2730.04,645.327,2729.958,645.331,2729.877,645.331z"/>
					<path style="fill:#91B3FA;" d="M2816.474,657.211c-0.374,0-0.754-0.062-1.128-0.198c-4.079-1.469-8.269-2.831-12.456-4.05
						c-1.765-0.514-2.779-2.36-2.266-4.125c0.51-1.765,2.363-2.792,4.125-2.266c4.32,1.255,8.643,2.662,12.853,4.18
						c1.729,0.621,2.626,2.529,2.002,4.258C2819.117,656.369,2817.836,657.211,2816.474,657.211z"/>
				</g>
				<g>
					<path style="fill:#91B3FA;" d="M2939.652,773.807c-1.297,0-2.532-0.764-3.068-2.038c-1.677-3.982-3.514-7.99-5.464-11.907
						c-0.819-1.645-0.146-3.644,1.499-4.463c1.645-0.822,3.644-0.146,4.463,1.499c2.012,4.044,3.907,8.178,5.64,12.29
						c0.712,1.694-0.084,3.644-1.778,4.359C2940.524,773.723,2940.085,773.807,2939.652,773.807z"/>
					<path style="fill:#91B3FA;" d="M2744.82,1067.251c-7.957,0-15.979-0.452-23.852-1.339c-1.827-0.208-3.14-1.856-2.935-3.683
						c0.208-1.827,1.846-3.156,3.683-2.935c9.056,1.027,18.245,1.443,27.451,1.255c0.023,0,0.045,0,0.065,0
						c1.811,0,3.293,1.447,3.329,3.264c0.036,1.836-1.424,3.358-3.263,3.393C2747.804,1067.234,2746.312,1067.251,2744.82,1067.251z
						 M2794.172,1061.426c-1.505,0-2.87-1.027-3.234-2.555c-0.426-1.788,0.676-3.585,2.464-4.011
						c8.913-2.126,17.744-4.856,26.248-8.113c1.703-0.65,3.641,0.198,4.297,1.918c0.66,1.716-0.201,3.641-1.918,4.297
						c-8.773,3.364-17.884,6.179-27.08,8.373C2794.689,1061.396,2794.429,1061.426,2794.172,1061.426z M2861.156,1032.509
						c-1.083,0-2.142-0.527-2.782-1.499c-1.011-1.534-0.585-3.598,0.949-4.609c7.619-5.016,14.982-10.597,21.879-16.584
						c1.388-1.209,3.488-1.06,4.694,0.331c1.206,1.388,1.056,3.491-0.332,4.694c-7.119,6.182-14.715,11.939-22.582,17.117
						C2862.42,1032.33,2861.783,1032.509,2861.156,1032.509z M2914.211,982.471c-0.692,0-1.391-0.215-1.99-0.663
						c-1.472-1.099-1.775-3.186-0.673-4.658c5.47-7.327,10.506-15.079,14.962-23.043c0.897-1.602,2.922-2.178,4.531-1.281
						c1.606,0.9,2.178,2.929,1.281,4.531c-4.603,8.217-9.797,16.217-15.443,23.778
						C2916.226,982.009,2915.225,982.471,2914.211,982.471z M2947.187,917.382c-0.318,0-0.647-0.045-0.969-0.143
						c-1.759-0.536-2.75-2.396-2.217-4.154c2.665-8.747,4.765-17.754,6.247-26.768c0.296-1.814,1.983-3.072,3.823-2.743
						c1.814,0.296,3.042,2.009,2.743,3.823c-1.528,9.303-3.696,18.599-6.443,27.626
						C2949.934,916.459,2948.614,917.382,2947.187,917.382z M2955.993,844.938c-1.755,0-3.225-1.375-3.322-3.15
						c-0.488-9.098-1.589-18.281-3.276-27.288c-0.338-1.807,0.855-3.546,2.662-3.884c1.804-0.312,3.543,0.855,3.885,2.662
						c1.736,9.293,2.873,18.765,3.38,28.153c0.097,1.836-1.31,3.403-3.146,3.504
						C2956.113,844.938,2956.054,844.938,2955.993,844.938z"/>
					<path style="fill:#91B3FA;" d="M2676.956,1055.968c-0.358,0-0.718-0.059-1.076-0.179c-4.287-1.466-8.542-3.072-12.648-4.772
						c-1.697-0.702-2.503-2.649-1.801-4.349s2.659-2.503,4.349-1.801c3.975,1.648,8.1,3.202,12.251,4.622
						c1.739,0.595,2.669,2.487,2.074,4.226C2679.634,1055.1,2678.34,1055.968,2676.956,1055.968z"/>
				</g>
				<g>
					<path style="fill:#91B3FA;" d="M2664.77,993.673c0.877,0.632,2.059,0.639,2.943,0.015l25.213-17.782
						c13.302,5.536,27.582,8.992,42.374,10.017l14.592,27.161c0.511,0.953,1.572,1.476,2.639,1.303l36.53-5.929
						c1.067-0.174,1.907-1.006,2.092-2.071l5.251-30.382c13.708-5.651,26.163-13.445,37.031-22.906l29.542,8.894
						c1.036,0.312,2.155-0.068,2.787-0.945l21.637-30.022c0.633-0.878,0.639-2.06,0.015-2.943l-17.781-25.212
						c5.537-13.302,8.992-27.583,10.016-42.375l27.162-14.592c0.952-0.512,1.476-1.571,1.302-2.639l-5.93-36.529
						c-0.173-1.068-1.004-1.908-2.07-2.092l-30.383-5.251c-5.651-13.709-13.446-26.163-22.906-37.03l8.894-29.544
						c0.311-1.035-0.069-2.155-0.945-2.787l-30.023-21.637c-0.877-0.633-2.059-0.639-2.943-0.015l-25.213,17.782
						c-13.301-5.537-27.582-8.992-42.374-10.017l-14.592-27.162c-0.512-0.952-1.572-1.476-2.639-1.302l-36.53,5.93
						c-1.067,0.173-1.907,1.005-2.091,2.07l-5.251,30.382c-13.709,5.651-26.163,13.446-37.031,22.906l-29.542-8.894
						c-1.036-0.312-2.156,0.068-2.788,0.945l-21.637,30.023c-0.633,0.878-0.639,2.059-0.016,2.943l17.782,25.213
						c-5.537,13.302-8.992,27.583-10.017,42.375l-27.161,14.592c-0.952,0.511-1.476,1.571-1.302,2.639l5.929,36.529
						c0.173,1.068,1.005,1.907,2.07,2.092l30.382,5.251c5.651,13.708,13.446,26.163,22.906,37.031l-8.894,29.543
						c-0.312,1.035,0.068,2.155,0.945,2.787L2664.77,993.673z"/>
					<g>
						<path style="fill:#BDD0FB;" d="M2744.813,888.885c-14.65,0-28.624-8.549-34.797-22.825
							c-8.282-19.155,0.562-41.483,19.718-49.772c19.152-8.289,41.48,0.562,49.772,19.718c8.282,19.159-0.563,41.486-19.718,49.772
							l0,0C2754.906,887.887,2749.819,888.885,2744.813,888.885z M2757.806,881.194h0.032H2757.806z M2744.719,823.166
							c-3.686,0-7.427,0.735-11.019,2.288c-14.104,6.101-20.615,22.539-14.517,36.64c6.098,14.104,22.542,20.621,36.64,14.517l0,0
							c14.104-6.098,20.615-22.536,14.517-36.64C2765.792,829.459,2755.504,823.166,2744.719,823.166z"/>
					</g>
					<path style="fill:#BDD0FB;" d="M2745.021,944.664c-0.582,0-1.161-0.006-1.739-0.016c-1.004-0.02-2.009-0.055-3.01-0.104
						c-0.013-0.003-0.026-0.003-0.026-0.003l0.497-9.973c5.968,0.306,11.988-0.029,17.93-0.991l0,0
						c22.227-3.608,41.72-15.658,54.888-33.926c10.46-14.513,15.931-31.572,15.931-49.119c0-4.541-0.367-9.111-1.108-13.681
						c-7.447-45.884-50.857-77.128-96.726-69.707c-41.324,6.709-70.796,42.569-70.803,83.151c-0.003,4.476,0.354,9.01,1.095,13.571
						c2.448,15.089,8.923,29.203,18.726,40.813l-7.632,6.443c-10.967-12.996-18.213-28.783-20.949-45.657
						c-0.829-5.1-1.229-10.171-1.229-15.18c0.01-45.387,32.97-85.495,79.192-92.997c51.342-8.37,99.849,26.641,108.18,77.964
						c0.829,5.11,1.242,10.223,1.242,15.3c0,19.623-6.121,38.704-17.819,54.937c-14.725,20.433-36.526,33.909-61.389,37.943
						c-0.058,0.01-0.117,0.019-0.179,0.029C2755.101,944.261,2750.047,944.664,2745.021,944.664z"/>
				</g>
			</g>
		</g>
		<g style="opacity:0.88;">
			<path style="fill:#BDD0FB;" d="M541.388,1257.011c-14.346-21.142-47.407-7.841-43.158,17.353
				c21.903,129.854,50.379,356.841,14.368,507.032c-52.948,220.835-139.69,868.092,477.374,1010.415
				C989.973,2791.811,897.626,1782.014,541.388,1257.011z"/>
			<path style="opacity:0.51;fill:#FFFFFF;" d="M604.808,1524.237c0,0,0.702,1.11,1.986,3.42c1.29,2.301,3.12,5.682,5.282,10.228
				c4.417,9.04,10.314,22.586,16.301,40.375c3.169,8.846,6.017,18.828,9.222,29.693c1.394,5.484,2.847,11.19,4.352,17.109
				c1.551,5.919,2.685,12.137,4.115,18.523c0.686,3.2,1.381,6.451,2.09,9.751c0.588,3.32,1.186,6.691,1.794,10.111
				c1.141,6.849,2.581,13.875,3.553,21.145c0.946,7.276,1.914,14.74,2.909,22.38c1.112,7.639,1.544,15.503,2.37,23.516
				c1.716,16.031,2.373,32.781,3.218,50.134c0.224,8.674,0.218,17.494,0.338,26.459c0.042,4.482,0.088,8.999,0.133,13.548
				c-0.032,4.546-0.218,9.119-0.318,13.729c-0.247,9.222-0.497,18.568-0.751,28.029c-0.475,9.721-0.969,18.842-1.801,28.618
				c-1.58,19.5-3.611,39.021-5.818,58.886c-2.227,19.776-4.486,39.882-6.777,60.237c-1.134,10.135-2.337,20.337-3.335,30.569
				c-0.52,5.118-1.04,10.249-1.56,15.391c-0.449,5.139-0.897,10.29-1.346,15.45c-3.527,41.277-5.298,83.181-3.927,124.888
				c1.352,41.704,6.267,83.166,14.907,123.159c8.471,40.03,20.956,78.516,36.474,114.33c1.918,4.489,3.826,8.96,5.727,13.41
				c2.113,4.359,4.213,8.697,6.303,13.015c4.222,8.62,8.133,17.306,12.879,25.451c4.603,8.216,8.916,16.488,13.61,24.418
				c4.869,7.834,9.677,15.573,14.419,23.207c1.193,1.906,2.383,3.806,3.566,5.698c1.277,1.835,2.548,3.663,3.813,5.483
				c2.529,3.65,5.035,7.273,7.525,10.868c4.99,7.187,9.664,14.45,14.965,21.084c5.146,6.755,10.203,13.396,15.17,19.913
				c1.242,1.632,2.477,3.254,3.709,4.869c1.307,1.554,2.61,3.101,3.904,4.64c2.594,3.078,5.159,6.127,7.697,9.145
				c5.084,6.041,10.06,11.955,14.923,17.738c5.1,5.584,10.083,11.041,14.939,16.36c4.863,5.326,9.599,10.515,14.205,15.56
				c4.824,4.842,9.511,9.544,14.052,14.101c4.551,4.556,8.955,8.967,13.207,13.225c2.132,2.123,4.154,4.287,6.267,6.273
				c2.123,1.976,4.206,3.914,6.244,5.813c8.175,7.606,15.68,14.595,22.461,20.906c3.371,3.186,6.612,6.144,9.765,8.807
				c3.114,2.711,6.033,5.253,8.75,7.617c5.438,4.734,10.064,8.76,13.815,12.025c7.512,6.539,11.517,10.025,11.517,10.025
				l0.049,0.042c0.692,0.603,0.764,1.655,0.163,2.347c-0.572,0.657-1.551,0.753-2.24,0.249c0,0-4.291-3.148-12.333-9.05
				c-4.024-2.955-8.991-6.599-14.826-10.883c-5.786-4.353-12.713-9.028-19.841-15.043c-14.422-11.822-32.466-25.627-51.569-43.357
				c-4.853-4.348-9.865-8.835-15.024-13.454c-4.954-4.842-10.054-9.822-15.284-14.933c-5.237-5.123-10.603-10.377-16.1-15.757
				c-5.214-5.661-10.548-11.452-15.996-17.366c-21.941-23.535-43.999-50.744-65.28-81.065c-5.142-7.713-10.353-15.531-15.628-23.446
				c-5.11-8.027-9.852-16.428-14.884-24.78c-5.172-8.278-9.531-17.137-14.195-25.941c-2.314-4.416-4.638-8.851-6.972-13.308
				c-2.08-4.583-4.167-9.188-6.264-13.81c-16.867-36.937-30.691-76.863-40.349-118.486c-9.605-41.644-14.77-84.894-16.516-128.082
				l-0.374-8.102l-0.117-8.096l-0.195-16.188c-0.052-10.782,0.279-21.531,0.54-32.268c0.608-10.699,1.008-21.406,1.791-32.024
				c0.832-10.611,1.495-21.219,2.581-31.707c0.497-5.251,0.991-10.493,1.489-15.723c0.569-5.212,1.134-10.411,1.7-15.598
				c1.092-10.387,2.379-20.655,3.605-30.878c2.535-20.421,5.428-40.483,8.032-60.172c2.646-19.666,5.1-39.058,7.047-57.732
				c0.556-4.647,0.917-9.448,1.343-14.158c0.413-4.647,0.959-9.571,1.271-13.911c0.598-9.251,1.186-18.39,1.768-27.405
				c0.27-4.51,0.624-8.989,0.822-13.439c0.124-4.452,0.244-8.869,0.367-13.256c0.211-8.771,0.546-17.418,0.65-25.918
				c-0.315-16.977,0.176-33.441-0.767-49.179c-1.017-31.538-3.992-60.338-7.489-85.736c-3.507-25.412-8.113-47.339-12.609-65.21
				c-4.538-17.863-8.936-31.712-12.436-40.942c-1.71-4.624-3.14-8.157-4.128-10.463c-0.978-2.313-1.57-3.524-1.57-3.524
				c-0.403-0.826-0.062-1.823,0.764-2.227c0.77-0.377,1.687-0.106,2.136,0.601L604.808,1524.237z"/>
		</g>
		<g>
			<g>
				
					<linearGradient id="SVGID_00000065769891581570706850000003309604228569447298_" gradientUnits="userSpaceOnUse" x1="258.7885" y1="-448.2763" x2="1665.6385" y2="1894.0411">
					<stop  offset="0" style="stop-color:#FEBBBA"/>
					<stop  offset="1" style="stop-color:#FF928E"/>
				</linearGradient>
				<path style="fill:url(#SVGID_00000065769891581570706850000003309604228569447298_);" d="M1227.813,455.037
					c-1.922-0.021-3.845-0.037-5.772-0.037c-291.124,0-527.126,238.586-527.126,532.898h532.898V455.037z"/>
				<path style="fill:#91B3FA;" d="M1225.497,988.919l287.164-448.988c-80.976-51.899-176.986-82.522-280.238-83.865
					c-3.252-0.042-6.495-0.045-9.734-0.029L1225.497,988.919z"/>
				
					<linearGradient id="SVGID_00000129917649346446685960000013772533700553351556_" gradientUnits="userSpaceOnUse" x1="1835.8452" y1="658.7739" x2="2914.2356" y2="24.7191">
					<stop  offset="0" style="stop-color:#4F52FF"/>
					<stop  offset="1" style="stop-color:#4042E2"/>
				</linearGradient>
				<path style="fill:url(#SVGID_00000129917649346446685960000013772533700553351556_);" d="M1227.813,987.905l532.353,23.889
					c0.149-3.339,0.278-6.684,0.365-10.039c5.03-193.464-93.698-365.518-245.555-462.844L1227.813,987.905z"/>
				
					<linearGradient id="SVGID_00000124850407099493837950000017604070124372297909_" gradientUnits="userSpaceOnUse" x1="1255.9083" y1="246.6947" x2="882.3905" y2="1161.8124">
					<stop  offset="0" style="stop-color:#E1473D"/>
					<stop  offset="1" style="stop-color:#E9605A"/>
				</linearGradient>
				<path style="fill:url(#SVGID_00000124850407099493837950000017604070124372297909_);" d="M1170.398,1041.367l-526.067-18.308
					c-8.542,245.467,150.346,457.889,374.112,527.425l154.563-505.462C1173.549,1043.243,1172.257,1041.432,1170.398,1041.367z"/>
				
					<linearGradient id="SVGID_00000052789021925600681350000014915792295433124502_" gradientUnits="userSpaceOnUse" x1="1260.2085" y1="709.4981" x2="1444.9335" y2="1533.2695">
					<stop  offset="0" style="stop-color:#FF928E"/>
					<stop  offset="1" style="stop-color:#FE7062"/>
				</linearGradient>
				<path style="fill:url(#SVGID_00000052789021925600681350000014915792295433124502_);" d="M1225.722,987.061l-142.684,512.532
					c44.729,13.208,83.657,18.352,132.541,19.309c228.048,4.463,425.401-135.021,505.361-334.978L1225.722,987.061z"/>
				<path style="fill:#7D97F4;" d="M1721.439,1188.65c22.552-55.06,36.172-114.811,39.028-177.504l0,0l-532.328-24.448
					L1721.439,1188.65z"/>
			</g>
			<path style="opacity:0.63;fill:#FFFFFF;" d="M1229.973,1502.026c-7.46,0-14.985-0.159-22.364-0.475
				c-3.673-0.156-6.524-3.26-6.368-6.933c0.159-3.676,3.267-6.514,6.933-6.368c7.193,0.306,14.527,0.462,21.798,0.462
				c161.014,0,313.847-77.788,408.824-208.078c2.165-2.971,6.329-3.624,9.3-1.459c2.971,2.165,3.624,6.329,1.459,9.3
				c-47.188,64.734-109.604,118.439-180.504,155.31C1395.788,1481.886,1313.115,1502.026,1229.973,1502.026z"/>
			<path style="fill:#91B3FA;" d="M1737.183,917.919c-3.264,0-6.114-2.405-6.582-5.731
				c-19.571-139.379-97.606-265.359-214.098-345.637c-3.026-2.084-3.79-6.231-1.703-9.258c2.087-3.029,6.234-3.79,9.257-1.703
				c119.551,82.384,199.64,211.687,219.728,354.745c0.51,3.641-2.025,7.008-5.666,7.518
				C1737.804,917.899,1737.492,917.919,1737.183,917.919z"/>
			<path style="opacity:0.63;fill:#FFFFFF;" d="M792.665,722.94c-1.183,0-2.383-0.315-3.465-0.978
				c-3.137-1.918-4.125-6.017-2.207-9.15c56.309-92.081,138.296-163.345,237.096-206.096c3.374-1.456,7.291,0.094,8.754,3.468
				c1.459,3.374-0.094,7.291-3.468,8.754C933.107,560.59,853.222,630.034,798.35,719.754
				C797.095,721.809,794.908,722.94,792.665,722.94z"/>
			<path style="opacity:0.63;fill:#FFFFFF;" d="M1005.44,1531.804l-6.729-2.786c-43.118-17.836-83.711-39.806-127.748-69.142
				c-3.062-2.038-3.891-6.169-1.85-9.228c2.032-3.065,6.166-3.894,9.228-1.85c40.999,27.308,78.922,48.111,118.745,65.095
				l77.534-248.278c1.095-3.51,4.821-5.458,8.341-4.369c3.507,1.095,5.464,4.83,4.369,8.341L1005.44,1531.804z"/>
			<path style="opacity:0.63;fill:#FFFFFF;" d="M1127.851,1124.105c-0.66,0-1.329-0.101-1.989-0.306
				c-3.51-1.099-5.464-4.83-4.369-8.341l14.735-47.146l-270.774-7.551c-3.676-0.101-6.573-3.163-6.469-6.839
				c0.101-3.611,3.059-6.472,6.651-6.472c0.062,0,0.127,0,0.189,0.003l276.72,7.717c2.779,0.075,5.305,1.417,6.927,3.683
				c1.619,2.266,2.071,5.094,1.242,7.753l-16.509,52.824C1133.312,1122.279,1130.686,1124.102,1127.851,1124.105z
				 M1142.177,1068.479h0.032H1142.177z"/>
		</g>
		<g>
			<path style="fill:#91B3FA;" d="M1126.818,2206.938c0-15.584-12.633-28.217-28.217-28.217H878.767
				c-15.584,0-28.217,12.633-28.217,28.217v958.766c0,15.584,12.633,28.217,28.217,28.217H1098.6
				c15.584,0,28.217-12.633,28.217-28.217V2206.938z"/>
			<path style="fill:#91B3FA;" d="M764.008,2725.827c0-7.341-15.318-14.543-30.902-14.543H510.563
				c-15.584,0-29.479,7.202-29.479,14.543v450.992c0,7.341,13.895,17.102,29.479,17.102h222.544
				c15.584,0,30.902-9.761,30.902-17.102V2725.827z"/>
			<path style="fill:#91B3FA;" d="M1817.074,2088.85h-222.353c-15.584,0-28.538,14.139-28.538,31.151v1042.312
				c0,17.012,12.955,34.937,28.538,34.937h222.353c15.584,0,35.362-17.925,35.362-34.937V2120.001
				C1852.437,2102.989,1832.658,2088.85,1817.074,2088.85z"/>
			<path style="fill:#91B3FA;" d="M1479.642,1894.056c0-15.584-12.633-28.217-28.217-28.217h-219.833
				c-15.584,0-28.217,12.633-28.217,28.217v1271.648c0,15.584,12.633,28.217,28.217,28.217h219.833
				c15.584,0,28.217-12.633,28.217-28.217V1894.056z"/>
			<path style="fill:#91B3FA;" d="M3080.663,1346.418c0-16.385-15.772-29.786-31.356-29.786h-222.544
				c-15.584,0-29.025,13.401-29.025,29.786v1815.09c0,16.385,13.441,32.413,29.025,32.413h222.544
				c15.584,0,31.356-16.028,31.356-32.413V1346.418z"/>
			<path style="fill:#91B3FA;" d="M2271.831,1684.359c0-15.584-12.633-28.217-28.217-28.217h-219.833
				c-15.584,0-28.217,12.633-28.217,28.217v1481.345c0,15.584,12.633,28.217,28.217,28.217h219.833
				c15.584,0,28.217-12.633,28.217-28.217V1684.359z"/>
			<path style="fill:#91B3FA;" d="M2687.897,1441.377c0-15.584-12.634-28.217-28.218-28.217h-219.833
				c-15.584,0-28.217,12.633-28.217,28.217v1727.656c0,15.584,12.633,28.217,28.217,28.217h219.833
				c15.584,0,28.218-12.633,28.218-28.217V1441.377z"/>
		</g>
		<g>
			
				<linearGradient id="SVGID_00000022553413653845228660000008900492800271349378_" gradientUnits="userSpaceOnUse" x1="2761.207" y1="474.9489" x2="1639.8158" y2="1571.9622">
				<stop  offset="0" style="stop-color:#2B3582"/>
				<stop  offset="1" style="stop-color:#150E42"/>
			</linearGradient>
			<polygon style="fill:url(#SVGID_00000022553413653845228660000008900492800271349378_);" points="1416.793,1343.983 
				1412.008,1335.22 1840.176,1101.271 2238.994,1276.577 2581.784,940.338 2984.168,702.865 2989.246,711.466 2587.908,948.321 
				2241.166,1288.435 2238.071,1287.076 1840.653,1112.387 			"/>
			
				<linearGradient id="SVGID_00000122706930357620430420000004268587721047171982_" gradientUnits="userSpaceOnUse" x1="1487.9529" y1="1267.6472" x2="1378.4515" y2="1374.7682">
				<stop  offset="0" style="stop-color:#09005D"/>
				<stop  offset="1" style="stop-color:#1A0F91"/>
			</linearGradient>
			<circle style="fill:url(#SVGID_00000122706930357620430420000004268587721047171982_);" cx="1414.4" cy="1339.601" r="46.115"/>
			
				<linearGradient id="SVGID_00000106139865851846651490000008979682866017635746_" gradientUnits="userSpaceOnUse" x1="1913.9692" y1="1034.8757" x2="1804.4679" y2="1141.9966">
				<stop  offset="0" style="stop-color:#09005D"/>
				<stop  offset="1" style="stop-color:#1A0F91"/>
			</linearGradient>
			
				<circle style="fill:url(#SVGID_00000106139865851846651490000008979682866017635746_);" cx="1840.417" cy="1106.829" r="46.115"/>
			
				<linearGradient id="SVGID_00000056416246056692559500000004621988781532501895_" gradientUnits="userSpaceOnUse" x1="2313.634" y1="1201.7686" x2="2204.1326" y2="1308.8896">
				<stop  offset="0" style="stop-color:#09005D"/>
				<stop  offset="1" style="stop-color:#1A0F91"/>
			</linearGradient>
			
				<circle style="fill:url(#SVGID_00000056416246056692559500000004621988781532501895_);" cx="2240.081" cy="1273.722" r="46.115"/>
			
				<linearGradient id="SVGID_00000180354166691134772500000000619362564151266972_" gradientUnits="userSpaceOnUse" x1="2647.4199" y1="872.3745" x2="2537.9185" y2="979.4955">
				<stop  offset="0" style="stop-color:#09005D"/>
				<stop  offset="1" style="stop-color:#1A0F91"/>
			</linearGradient>
			<circle style="fill:url(#SVGID_00000180354166691134772500000000619362564151266972_);" cx="2573.867" cy="944.328" r="46.115"/>
			
				<linearGradient id="SVGID_00000171713206858635011630000011314989549130046132_" gradientUnits="userSpaceOnUse" x1="3060.2605" y1="635.2108" x2="2950.759" y2="742.3317">
				<stop  offset="0" style="stop-color:#09005D"/>
				<stop  offset="1" style="stop-color:#1A0F91"/>
			</linearGradient>
			<circle style="fill:url(#SVGID_00000171713206858635011630000011314989549130046132_);" cx="2986.708" cy="707.165" r="46.115"/>
		</g>
		<g>
			
				<linearGradient id="SVGID_00000054969445714604668660000013655187994575065217_" gradientUnits="userSpaceOnUse" x1="3426.175" y1="1134.4794" x2="2427.6174" y2="2825.3721">
				<stop  offset="0" style="stop-color:#FF928E"/>
				<stop  offset="1" style="stop-color:#FE7062"/>
			</linearGradient>
			<path style="fill:url(#SVGID_00000054969445714604668660000013655187994575065217_);" d="M2229.908,3002.969l511.156-979.266
				h-104.726c-19.312,0-29.932-22.453-17.684-37.382l544.79-663.988c23.611-28.778,70.253-10.526,68.061,26.634l-38.295,649.299
				c-2.192,37.17-35.152,64.873-72.144,60.639l-73.016-8.356L2540.88,3148.895c-13.203,28.592-41.823,46.901-73.317,46.901h-175.778
				L2229.908,3002.969z"/>
			<path style="opacity:0.63;fill:#FFFFFF;" d="M2715.26,1954.407c-1.063,0-2.136-0.338-3.042-1.037
				c-2.185-1.681-2.594-4.817-0.91-7.002l449.862-584.534c5.289-6.875,13.906-9.209,21.941-5.961
				c8.045,3.254,12.612,10.925,11.633,19.545l-7.938,70.065c-0.312,2.74-2.779,4.726-5.523,4.398
				c-2.74-0.309-4.71-2.782-4.398-5.523l7.938-70.065c0.556-4.905-2.454-7.951-5.454-9.163c-3.004-1.219-7.281-1.115-10.288,2.795
				l-449.861,584.534C2718.237,1953.737,2716.755,1954.407,2715.26,1954.407z"/>
			<g>
				<path style="fill:#BDD0FB;" d="M3221.689,2188.478c-159.096,70.537-581.702,314.62-764.157,972.552
					c0,0,246.133,4.126,430.796-390.599c157.922-337.565,248.745-473.943,345.451-563.728
					C3242.945,2198.194,3233.122,2183.409,3221.689,2188.478z"/>
				<path style="opacity:0.51;fill:#FFFFFF;" d="M2486.963,3123.754c0,0,0.293-0.938,0.855-2.758c0.563-1.83,1.427-4.531,2.6-8.022
					c2.295-7.013,5.812-17.236,10.581-30.137c4.651-12.953,10.811-28.467,17.953-46.248c7.249-17.732,15.81-37.576,25.455-59.098
					c9.817-21.437,20.758-44.529,32.85-68.705c12.378-24.021,25.374-49.413,39.881-75.102c3.615-6.428,7.261-12.909,10.935-19.438
					c3.787-6.464,7.603-12.975,11.442-19.524c7.596-13.145,15.726-26.196,23.849-39.388c8.211-13.14,16.691-26.261,25.159-39.456
					c8.731-13.031,17.241-26.279,26.212-39.222c8.981-12.939,17.735-26.03,27.135-38.603c4.622-6.339,9.238-12.662,13.837-18.969
					c4.629-6.286,9.42-12.428,14.094-18.614c4.707-6.161,9.391-12.3,14.055-18.408c4.788-6.01,9.557-11.993,14.292-17.938
					c9.326-12.004,19.136-23.391,28.699-34.652c9.436-11.362,19.201-22.134,28.663-32.744c9.368-10.691,18.921-20.815,28.315-30.573
					c4.697-4.877,9.238-9.768,13.88-14.432c4.681-4.625,9.29-9.179,13.821-13.657c4.531-4.476,8.984-8.875,13.356-13.194
					c4.382-4.307,8.893-8.324,13.197-12.368c8.777-7.92,16.932-15.76,25.13-22.747c8.178-6.998,15.934-13.636,23.225-19.874
					c1.827-1.55,3.624-3.076,5.393-4.578c1.827-1.433,3.621-2.843,5.386-4.226c3.524-2.766,6.924-5.433,10.19-7.995
					c6.524-5.118,12.515-9.818,17.927-14.063c22.396-15.97,35.193-25.096,35.193-25.096c1.18-0.84,2.818-0.566,3.66,0.613
					c0.79,1.112,0.595,2.63-0.419,3.506l-0.091,0.078c0,0-11.835,10.181-32.547,27.997c-5.032,4.609-10.603,9.712-16.669,15.268
					c-3.03,2.774-6.183,5.662-9.453,8.658c-1.635,1.495-3.296,3.02-4.99,4.57c-1.645,1.604-3.315,3.236-5.016,4.895
					c-6.803,6.61-14.045,13.646-21.677,21.062c-7.645,7.392-15.219,15.658-23.365,24c-4.044,4.204-8.292,8.37-12.404,12.838
					c-4.099,4.474-8.279,9.031-12.527,13.668c-4.249,4.634-8.565,9.344-12.953,14.128c-4.343,4.822-8.584,9.875-12.976,14.908
					c-4.385,5.038-8.828,10.146-13.327,15.315c-4.58,5.095-8.867,10.567-13.392,15.923c-8.958,10.795-18.196,21.741-27.106,33.287
					c-4.509,5.719-9.059,11.489-13.639,17.299c-4.58,5.807-8.991,11.824-13.577,17.758c-4.544,5.963-9.118,11.962-13.714,17.99
					c-4.469,6.127-8.962,12.284-13.473,18.465c-4.479,6.202-9.072,12.357-13.506,18.66c-4.408,6.321-8.825,12.662-13.256,19.016
					c-8.926,12.651-17.536,25.604-26.31,38.442c-8.767,12.839-17.081,25.993-25.611,38.922c-8.276,13.1-16.562,26.123-24.581,39.167
					c-15.957,26.144-31.608,51.911-46.226,77.174c-7.313,12.63-14.507,25.048-21.551,37.205
					c-6.998,12.183-13.649,24.218-20.182,35.902c-12.908,23.454-25.309,45.554-36.13,66.284
					c-11.208,20.54-21.044,39.604-29.859,56.468c-8.848,16.851-16.282,31.686-22.546,43.85
					c-12.261,24.462-19.269,38.44-19.269,38.44l-0.013,0.032c-0.653,1.3-2.233,1.825-3.533,1.174
					C2487.129,3126.3,2486.586,3124.963,2486.963,3123.754z"/>
			</g>
			<g>
				<path style="fill:#BDD0FB;" d="M2461.958,3174.448c0,0,66.197-259.552,428.284-294.456
					c241.622-23.292,318.423-82.383,340.989-108.382c2.629-3.028,7.574-0.773,6.966,3.191
					c-7.518,48.996-48.274,200.41-267.694,288.854C2706.06,3170.247,2573.577,3086.433,2461.958,3174.448z"/>
				<path style="opacity:0.51;fill:#FFFFFF;" d="M2480.637,3123.872c0,0,1.986-2.212,5.903-6.08
					c3.914-3.883,9.706-9.53,17.436-16.316c7.661-6.872,17.28-14.852,28.614-23.648c11.276-8.89,24.528-18.211,39.266-28.023
					c14.774-9.76,31.28-19.609,49.242-29.188c17.972-9.555,37.443-18.759,58.152-27.051c20.696-8.303,42.699-15.531,65.521-21.276
					c22.815-5.758,46.473-9.947,70.364-12.29c5.991-0.439,11.952-1.147,17.956-1.355c6-0.216,11.994-0.434,17.975-0.65
					c5.991,0.083,11.968,0.166,17.93,0.249c5.955,0.158,11.89,0.715,17.796,1.056c11.348,0.727,22.601,1.445,33.721,2.157
					c11.396,1.113,21.762,0.421,32.352,0.648c2.63,0.013,5.25,0.026,7.86,0.037l3.907,0.023l3.901-0.262
					c5.198-0.365,10.343-0.729,15.437-1.089c2.548-0.179,5.087-0.356,7.609-0.533l3.774-0.262c1.245-0.14,2.47-0.361,3.702-0.536
					c4.918-0.741,9.781-1.474,14.575-2.197c19.253-2.68,36.955-7.527,52.977-12.914c2.054-0.566,3.939-1.443,5.847-2.225
					c1.915-0.777,3.806-1.545,5.676-2.304c3.709-1.585,7.499-2.861,10.922-4.601c3.426-1.759,6.761-3.472,10.005-5.137
					c1.615-0.848,3.257-1.622,4.795-2.5c1.495-0.944,2.968-1.872,4.417-2.787c2.922-1.822,5.75-3.587,8.481-5.289
					c2.617-1.854,5.074-3.74,7.483-5.503c4.954-3.395,8.809-7.279,12.622-10.489c3.517-3.467,6.735-6.564,9.287-9.454
					c2.506-2.924,4.703-5.402,6.215-7.583c1.642-2.113,2.753-3.798,3.501-4.944c0.767-1.143,1.063-1.705,1.063-1.705
					c0.497-0.946,1.667-1.31,2.613-0.813c0.862,0.452,1.242,1.463,0.927,2.355l-0.01,0.032c0,0-0.276,0.78-0.894,2.093
					c-0.611,1.323-1.495,3.315-2.896,5.734c-2.659,4.957-7.187,11.819-13.85,19.926c-3.563,3.802-7.223,8.396-11.978,12.552
					c-2.317,2.148-4.697,4.445-7.249,6.729c-2.698,2.098-5.49,4.273-8.376,6.519c-1.453,1.12-2.932,2.257-4.434,3.411
					c-1.541,1.087-3.182,2.071-4.811,3.135c-3.283,2.098-6.66,4.258-10.125,6.475c-3.485,2.202-7.32,3.931-11.117,5.996
					c-3.858,1.919-7.694,4.235-11.88,5.877c-16.584,7.005-35.099,13.605-55.249,17.914c-5.048,1.039-10.164,2.092-15.346,3.158
					c-1.3,0.255-2.597,0.556-3.907,0.775l-3.953,0.496c-2.646,0.332-5.305,0.665-7.98,1c-5.36,0.666-10.775,1.341-16.243,2.02
					l-4.122,0.492l-4.183,0.21c-2.795,0.14-5.607,0.28-8.429,0.419c-11.224,0.471-23.046,1.38-34.075,0.746
					c-5.614-0.153-11.26-0.307-16.935-0.462c-5.76-0.2-11.552-0.4-17.364-0.601c-22.097-1.209-44.662-0.457-67.058,2.064
					c-22.412,2.415-44.656,6.566-66.294,11.894c-21.629,5.372-42.692,11.802-62.738,19.126
					c-40.147,14.544-76.439,31.761-106.958,47.82c-15.32,7.951-28.943,16.031-41.142,23.062
					c-12.128,7.145-22.526,13.701-31.114,19.102c-8.526,5.485-15.18,9.898-19.691,12.947c-4.479,3.08-6.868,4.723-6.868,4.723
					c-0.887,0.608-2.097,0.385-2.708-0.5C2479.961,3125.52,2480.052,3124.526,2480.637,3123.872z"/>
			</g>
			
				<linearGradient id="SVGID_00000082359331210982974300000014548226581845704349_" gradientUnits="userSpaceOnUse" x1="2468.4448" y1="3285.0342" x2="1942.5371" y2="2399.646">
				<stop  offset="0" style="stop-color:#FF928E"/>
				<stop  offset="1" style="stop-color:#FE7062"/>
			</linearGradient>
			<path style="fill:url(#SVGID_00000082359331210982974300000014548226581845704349_);" d="M1807.293,2316.165l360.865,801.617
				c21.375,47.48,68.605,78.013,120.674,78.013h186.034c24.683,0,47.424-13.39,59.397-34.974l6.616-11.927l0,0
				c-19.988,0-38.289-11.206-47.375-29.01l-480.81-942.077L1807.293,2316.165z"/>
			
				<linearGradient id="SVGID_00000047758835132232217400000002941734444517001915_" gradientUnits="userSpaceOnUse" x1="2063.0464" y1="1931.3804" x2="1264.2009" y2="3089.7058">
				<stop  offset="0" style="stop-color:#FF928E"/>
				<stop  offset="1" style="stop-color:#FE7062"/>
			</linearGradient>
			<path style="fill:url(#SVGID_00000047758835132232217400000002941734444517001915_);" d="M2061.26,2272.964L2061.26,2272.964
				c-36.186-28.575-89.058-20.175-114.606,18.209L1416.08,3088.32c-42.494,63.845-114.106,102.205-190.8,102.205h-74.658
				l-60.759-175.028c0,0,493.25-756.309,620.383-870.717c0,0,126.606-114.106,251.437-27.833
				c32.979,22.793,58.019,55.323,73.313,92.38L2061.26,2272.964z"/>
			
				<linearGradient id="SVGID_00000165193931985071231720000009585682040481690497_" gradientUnits="userSpaceOnUse" x1="1302.6818" y1="3181.6021" x2="617.0049" y2="2495.925">
				<stop  offset="0" style="stop-color:#FF928E"/>
				<stop  offset="1" style="stop-color:#FE7062"/>
			</linearGradient>
			<path style="fill:url(#SVGID_00000165193931985071231720000009585682040481690497_);" d="M512.794,2544.765
				c0,0,88.814-111.013,260.917-128.283c0,0,81.741,27.849,244.588,319.65c162.847,291.801,270.94,424.868,397.782,352.188
				l-10.501,17.436c-34.607,57.461-96.785,92.597-163.864,92.597h-70.152c-77.238,0-149.745-37.134-194.849-99.834
				C849.97,2922.327,590.651,2572.117,512.794,2544.765z"/>
			<path style="opacity:0.63;fill:#FFFFFF;" d="M3170.036,1554.204c-0.188,0-0.377-0.01-0.569-0.033
				c-2.74-0.309-4.71-2.782-4.398-5.523l3.592-31.706c0.312-2.74,2.773-4.71,5.523-4.398c2.74,0.309,4.71,2.782,4.398,5.523
				l-3.592,31.705C3174.7,1552.322,3172.542,1554.204,3170.036,1554.204z"/>
		</g>
		<g>
			
				<linearGradient id="SVGID_00000102537041404944714360000016658091636366764723_" gradientUnits="userSpaceOnUse" x1="1758.9962" y1="1538.9296" x2="1859.8654" y2="1791.9574">
				<stop  offset="0" style="stop-color:#09005D"/>
				<stop  offset="1" style="stop-color:#1A0F91"/>
			</linearGradient>
			<path style="fill:url(#SVGID_00000102537041404944714360000016658091636366764723_);" d="M1818.806,1675.038
				c0,0,34.006,16.541,40.258,35.542c5.017,15.246,42.618,17.211,46.332,47.195c1.918,15.481,13.374,27.879,28.793,30.242
				c38.403,5.886,97.586,25.828,107.055,92.504c7.228,50.893-18.717,70.191-45.945,76.871
				c-19.998,4.906-33.288,24.358-29.243,44.548c3.88,19.365-1.906,41.752-35.455,59.455
				c-75.181,39.671-150.262-93.983-150.262-93.983l-15.387-233.367L1818.806,1675.038z"/>
			
				<linearGradient id="SVGID_00000174574327085078848890000005128804881177276329_" gradientUnits="userSpaceOnUse" x1="1550.8888" y1="1685.1145" x2="1737.2407" y2="2109.1072">
				<stop  offset="0" style="stop-color:#FEBBBA"/>
				<stop  offset="1" style="stop-color:#FF928E"/>
			</linearGradient>
			<path style="fill:url(#SVGID_00000174574327085078848890000005128804881177276329_);" d="M1464.909,1551.969
				c0,0,96.739,263.72,261.576,346.144c0,0-54.864,89.516-83.495,94.945c0,0-176.088-225.373-194.04-410.015L1464.909,1551.969z"/>
			
				<linearGradient id="SVGID_00000018195660947120662870000008694513995018912418_" gradientUnits="userSpaceOnUse" x1="2127.7302" y1="3158.8401" x2="2213.2632" y2="3158.8401">
				<stop  offset="0" style="stop-color:#09005D"/>
				<stop  offset="1" style="stop-color:#1A0F91"/>
			</linearGradient>
			<path style="fill:url(#SVGID_00000018195660947120662870000008694513995018912418_);" d="M2127.832,3138.327l4.865,39.994
				c0.923,7.587,6.896,13.587,14.49,14.454c12.821,1.465,33.396,2.966,53.526,0.838c8.836-0.934,14.572-9.881,11.881-18.349
				c-4.907-15.439-13.885-38.616-26.829-52.255H2141.4C2133.197,3123.009,2126.842,3130.184,2127.832,3138.327z"/>
			
				<linearGradient id="SVGID_00000147213162545446102780000015310167296823113629_" gradientUnits="userSpaceOnUse" x1="1766.309" y1="3496.1353" x2="1889.3972" y2="2057.5405">
				<stop  offset="0" style="stop-color:#FEBBBA"/>
				<stop  offset="1" style="stop-color:#FF928E"/>
			</linearGradient>
			<path style="fill:url(#SVGID_00000147213162545446102780000015310167296823113629_);" d="M1780.339,2669.815l-7.488,44.05
				c0,0,25.077,254.01,29.538,355.614c0.699,15.929-3.422,31.671-11.782,45.249l-43.605,70.81l110.821-65.394l2.206-13.524
				l-18.141-24.943l23.762-284.554c1.396-16.716-2.053-33.481-9.935-48.288l-22.922-43.063L1780.339,2669.815z"/>
			
				<linearGradient id="SVGID_00000142898465425726562620000000711096652038421179_" gradientUnits="userSpaceOnUse" x1="1730.3511" y1="3143.2239" x2="1868.7501" y2="3143.2239">
				<stop  offset="0" style="stop-color:#09005D"/>
				<stop  offset="1" style="stop-color:#1A0F91"/>
			</linearGradient>
			<path style="fill:url(#SVGID_00000142898465425726562620000000711096652038421179_);" d="M1739.703,3195.795h35.365
				c6.62,0,12.862-3.039,16.9-8.285c11.025-14.326,33.867-42.275,44.789-43.004c14.703-0.982,12.822,51.289,12.822,51.289h8.242
				l10.44-64.953c2.627-16.343-5.501-32.533-20.176-40.19l0,0c0,0-3.361,24.856-21.586,35.851s-74.163,50.369-74.163,50.369
				s-6.851-0.977-14.373,0.383C1726.805,3179.271,1728.363,3195.795,1739.703,3195.795z"/>
			
				<linearGradient id="SVGID_00000134965936637428447100000012681662873768913828_" gradientUnits="userSpaceOnUse" x1="2013.9086" y1="3517.541" x2="2137.0291" y2="2078.5679">
				<stop  offset="0" style="stop-color:#FEBBBA"/>
				<stop  offset="1" style="stop-color:#FF928E"/>
			</linearGradient>
			<path style="fill:url(#SVGID_00000134965936637428447100000012681662873768913828_);" d="M1932.127,2690.737
				c0,0,146.909,278.672,170.262,342.298c23.353,63.625,31.534,116.703,31.847,121.729c0.49,7.854,10.258,15.387,37.185,15.387
				c13.896,0,20.702-5.571,24.034-10.962c2.843-4.6,2.99-10.356,0.594-15.204c-8.498-17.198-35.466-72.159-45.454-97.087
				c-11.925-29.763-37.576-164.642-51.644-211.537c-14.068-46.896-29.969-97.766-91.232-144.623
				C2007.72,2690.737,1965.666,2649.548,1932.127,2690.737z"/>
			
				<linearGradient id="SVGID_00000170978544760374801590000011067875305306090376_" gradientUnits="userSpaceOnUse" x1="1769.3496" y1="2045.4012" x2="1830.8965" y2="2616.4233">
				<stop  offset="0" style="stop-color:#4F52FF"/>
				<stop  offset="1" style="stop-color:#4042E2"/>
			</linearGradient>
			<path style="fill:url(#SVGID_00000170978544760374801590000011067875305306090376_);" d="M1839.322,2234.118
				c-37.896-160.58,58.106-251.402,58.106-251.402c-60.575-58.145-170.943-84.604-170.943-84.604s-105.314,76.994-92.821,137.259
				c7.322,35.322,74.026,211.569,74.026,211.569S1769.37,2276.132,1839.322,2234.118z"/>
			
				<linearGradient id="SVGID_00000118362242715308097350000011932885460453740216_" gradientUnits="userSpaceOnUse" x1="1918.0291" y1="2235.7556" x2="1791.5452" y2="2748.3491">
				<stop  offset="0" style="stop-color:#09005D"/>
				<stop  offset="1" style="stop-color:#1A0F91"/>
			</linearGradient>
			<path style="fill:url(#SVGID_00000118362242715308097350000011932885460453740216_);" d="M1923.342,2313.617
				c-15.422-46.461-84.021-79.499-84.021-79.499c-69.952,42.013-131.632,12.822-131.632,12.822s-13.833,52.872-4.285,102.008
				c9.547,49.136,69.446,364.917,69.446,364.917c94.38,19.123,239.535-19.24,239.535-19.24
				C1952.268,2587.893,1938.764,2360.078,1923.342,2313.617z"/>
			
				<linearGradient id="SVGID_00000096774335949941053620000017530821061405720201_" gradientUnits="userSpaceOnUse" x1="1752.8103" y1="2078.1116" x2="1775.932" y2="1908.9587">
				<stop  offset="0" style="stop-color:#FEBBBA"/>
				<stop  offset="1" style="stop-color:#FF928E"/>
			</linearGradient>
			<path style="fill:url(#SVGID_00000096774335949941053620000017530821061405720201_);" d="M1795.334,1791.996l30.81,138.393
				c2.95,12.19-8.163,10.195-20.487,7.872c-20.183-3.805-46.196-11.642-54.892-27.347c-0.885-1.599-1.327-3.405-1.577-5.215
				l-13.237-95.965c-1.05-7.614,3.066-15.003,10.092-18.118l25.543-11.326C1781.421,1775.928,1792.803,1781.539,1795.334,1791.996z"
				/>
			
				<linearGradient id="SVGID_00000068669901442258076500000003420780006235493516_" gradientUnits="userSpaceOnUse" x1="1882.5699" y1="2246.7483" x2="2062.9546" y2="1659.2096">
				<stop  offset="0" style="stop-color:#FEBBBA"/>
				<stop  offset="1" style="stop-color:#FF928E"/>
			</linearGradient>
			<path style="fill:url(#SVGID_00000068669901442258076500000003420780006235493516_);" d="M1897.427,1982.716
				c0,0,215.04,153.85,27.502,315.514c0,0-7.151,8.09-21.219,12.295c-7.102,2.123-28.111,18.018-38.763,26.305
				c-3.424,2.664-8.372,1.757-10.674-1.92l0,0c-1.804-2.882-2.016-6.483-0.563-9.557l26.622-56.295
				c7.393-6.899,18.709-7.389,26.67-1.154l0,0c5.079,3.977,12.519,2.312,15.362-3.479c14.497-29.527,41.872-116.367-70.172-214.495
				c-4.212-3.689-5.277-9.79-2.692-14.756C1857.374,2020.053,1875.378,1990.022,1897.427,1982.716z"/>
			<g>
				
					<linearGradient id="SVGID_00000154397705094554674260000012670075835132362933_" gradientUnits="userSpaceOnUse" x1="1694.4501" y1="1860.0219" x2="1896.1887" y2="1500.995">
					<stop  offset="0" style="stop-color:#FEBBBA"/>
					<stop  offset="1" style="stop-color:#FF928E"/>
				</linearGradient>
				<path style="fill:url(#SVGID_00000154397705094554674260000012670075835132362933_);" d="M1759.184,1660.226
					c0,0-36.49,15.408-61.301,68.137s-6.283,77.075,16.99,80.417c23.273,3.342,58.078,2.833,94.892-31.229
					C1846.581,1743.489,1806.619,1641.962,1759.184,1660.226z"/>
				
					<linearGradient id="SVGID_00000183244677581217090870000007569437829217419669_" gradientUnits="userSpaceOnUse" x1="1737.8337" y1="1547.3658" x2="1838.7028" y2="1800.3934">
					<stop  offset="0" style="stop-color:#09005D"/>
					<stop  offset="1" style="stop-color:#1A0F91"/>
				</linearGradient>
				<path style="fill:url(#SVGID_00000183244677581217090870000007569437829217419669_);" d="M1785.019,1749.4
					c0,0,27.53-77.144-40.865-78.056l-16.094,11.249c0,0-25.095-42.771,16.094-63.188s89.396-3.552,106.924,51.94
					c17.528,55.492,20.521,92.638-8.64,119.188s-41.179-3.554-41.179-3.554s15.88-24.832,9.416-38.118
					c-6.465-13.286-21.376,2.748-21.376,2.748L1785.019,1749.4z"/>
				
					<linearGradient id="SVGID_00000153706329874579788380000010017135570269294753_" gradientUnits="userSpaceOnUse" x1="1737.3923" y1="1884.1516" x2="1939.1307" y2="1525.1251">
					<stop  offset="0" style="stop-color:#FEBBBA"/>
					<stop  offset="1" style="stop-color:#FF928E"/>
				</linearGradient>
				<path style="fill:url(#SVGID_00000153706329874579788380000010017135570269294753_);" d="M1792.69,1757.992
					c0,0,13.919-39.739,32.488-23.913c18.569,15.826-15.092,36.708-28.269,43.471L1792.69,1757.992z"/>
			</g>
			<g>
				
					<linearGradient id="SVGID_00000148652836336678404650000005027088797291909504_" gradientUnits="userSpaceOnUse" x1="1514.0645" y1="1701.2997" x2="1700.4164" y2="2125.2927">
					<stop  offset="0" style="stop-color:#FEBBBA"/>
					<stop  offset="1" style="stop-color:#FF928E"/>
				</linearGradient>
				<path style="fill:url(#SVGID_00000148652836336678404650000005027088797291909504_);" d="M1455.623,1599.969
					c-1.476,4.692,15.616,11.837,25.679-7.354c0.352-9.197,5.945-48.599,0.449-56.092c-29.27-39.906-86.019-89.929-86.019-89.929
					c-9.591,9.464-1.689,18.76-1.689,18.76l27.529,28.678c-5.758,10.406-12.781,19.189-16.073,31.775
					c-2.493,9.532-0.968,19.718,3.846,28.392c4.832,8.706,11.425,20.023,17.658,28.879
					C1438.8,1599.843,1455.623,1599.969,1455.623,1599.969z"/>
				
					<linearGradient id="SVGID_00000041267304989213260350000004571263571057831098_" gradientUnits="userSpaceOnUse" x1="1425.4967" y1="1544.9634" x2="1468.9806" y2="1544.9634">
					<stop  offset="0" style="stop-color:#FEBBBA"/>
					<stop  offset="1" style="stop-color:#FF928E"/>
				</linearGradient>
				<path style="fill:url(#SVGID_00000041267304989213260350000004571263571057831098_);" d="M1441.686,1580.347
					c-2.07-11.553-8.397-43.096-12.772-50.215c-3.044-4.952-4.041-9.083-3.046-12.629c0.834-2.972,2.986-5.31,6.577-7.145
					l1.522-0.779l26.901,22.806l8.112,21.804l-4.807,1.788l-7.644-20.546l-23.192-19.661c-1.373,0.932-2.206,1.961-2.531,3.119
					c-0.579,2.064,0.255,4.943,2.478,8.558c5.775,9.4,13.139,50.263,13.449,51.997L1441.686,1580.347z"/>
			</g>
		</g>
	</g>
</g>
</svg>
